<?xml version="1.0" encoding="utf-8"?>
<svg id="Layer_2" data-name="Layer 2" xmlns="http://www.w3.org/2000/svg" viewBox="215.19 0 223.47 253.94">
  <defs>
    <style>
      .cls-1, .cls-2 {
        stroke-width: 14px;
      }

      .cls-1, .cls-2, .cls-3 {
        fill: none;
        stroke: #cff7ee;
        stroke-miterlimit: 10;
      }

      .cls-2 {
        stroke-linecap: round;
      }

      .cls-3 {
        stroke-width: 13px;
      }

      .cls-4 {
        fill: #cff7ee;
        stroke-width: 0px;
      }
    </style>
  </defs>
  <g id="Layer_1-2" data-name="Layer 1">
    <g>
      <g/>
      <path class="cls-2" d="m384.79,152.98c0,25.84-24.17,46.79-53.98,46.79s-53.98-20.95-53.98-46.79"/>
      <path class="cls-1" d="m394.39,246.94h-126.7c-21.58,0-39.1-14.97-37.63-32.45l11.54-137.75c1.43-17.09,17.75-30.17,37.88-30.2l99.38-.16c19.99-.03,36.46,12.99,38.24,30l14.43,137.8c1.84,17.53-15.56,32.77-37.14,32.77Z"/>
      <circle class="cls-4" cx="385.32" cy="133.89" r="6.55"/>
      <circle class="cls-4" cx="385.79" cy="114.25" r="6.55"/>
      <circle class="cls-4" cx="385.56" cy="95.32" r="6.55"/>
      <path class="cls-3" d="m279.05,48.48c0-23.19,21.99-41.98,49.11-41.98s49.11,18.8,49.11,41.98"/>
    </g>
  </g>
</svg>