<?xml version="1.0" encoding="UTF-8"?>
<svg id="Layer_2" data-name="Layer 2" xmlns="http://www.w3.org/2000/svg" viewBox="0 0 438.66 253.94">
  <defs>
    <style>
      .cls-1, .cls-2 {
        stroke-width: 14px;
      }

      .cls-1, .cls-2, .cls-3 {
        fill: none;
        stroke: #cff7ee;
        stroke-miterlimit: 10;
      }

      .cls-2 {
        stroke-linecap: round;
      }

      .cls-3 {
        stroke-width: 13px;
      }

      .cls-4 {
        fill: #cff7ee;
        stroke-width: 0px;
      }
    </style>
  </defs>
  <g id="Layer_1-2" data-name="Layer 1">
    <g>
      <g>
        <path class="cls-4" d="m40.87,121.11h-9.35c-.03,6.03-1.88,11.06-5.56,15.08-3.68,4.02-8.64,6.03-14.87,6.03h-2.21c-4.56,0-7.42-1.35-8.58-4.04-.2-.48-.3-.99-.3-1.53,0-1.7,1.06-3.63,3.19-5.78,1.84,1.9,4.4,2.85,7.69,2.85h.13c4.7,0,7.07-4.23,7.09-12.7v-35.56c0-4.56,2.29-6.84,6.88-6.84,2.69,0,5.41.41,8.16,1.23-1.08,3.74-1.61,8.3-1.61,13.68v19.07h9.35v8.5Z"/>
        <path class="cls-4" d="m39,121.11v-8.5h30.67c-.76-3-1.15-6.29-1.15-9.86v-6.41c0-3.31-.39-5.74-1.18-7.29-.79-1.54-2.5-2.31-5.12-2.31s-4.35.3-5.17.89c-1.3.96-2.11,2.93-2.42,5.9-5.13-.17-7.69-2.35-7.69-6.54,0-2.81,1.32-4.89,3.95-6.22,3.37-1.69,7.12-2.53,11.26-2.53,7.63,0,12.84,1.17,15.63,3.51,2.78,2.34,4.17,6.32,4.17,11.96v12.19c0,5.92.44,10.21,1.32,12.87-2.1,1.56-4.49,2.34-7.18,2.34h-37.09Zm22.79,19.07c-1.26-1.36-1.89-3.07-1.89-5.12s.67-3.77,2.01-5.16c1.34-1.39,2.9-2.08,4.67-2.08s3.34.69,4.7,2.08c1.36,1.39,2.04,3.09,2.04,5.12s-.72,3.73-2.17,5.12c-1.45,1.39-3.05,2.08-4.82,2.08s-3.29-.68-4.55-2.04Z"/>
        <path class="cls-4" d="m112.57,112.62v8.5h-2.17c-6.26,0-11.23-2.01-14.91-6.03-3.68-4.02-5.52-9.08-5.52-15.17v-30.33c0-4.59,2.29-6.88,6.88-6.88,2.69,0,5.41.42,8.16,1.27-1.08,3.74-1.61,8.28-1.61,13.64v22.3c0,8.47,2.35,12.7,7.05,12.7h2.12Z"/>
        <path class="cls-4" d="m145.96,112.62v8.5h-3.65c-5.49,0-10.07-1.64-13.72-4.93-3.65,3.29-8.23,4.93-13.72,4.93h-3.65v-8.5h3.61c4.7,0,7.05-4.23,7.05-12.7v-14.44c0-4.56,2.31-6.84,6.92-6.84,2.69,0,5.4.41,8.11,1.23-1.08,3.74-1.62,8.3-1.62,13.68v6.37c.03,8.47,2.38,12.7,7.05,12.7h3.61Zm-30.53-40.95c-1.26-1.36-1.89-3.07-1.89-5.12s.66-3.77,1.98-5.16c1.32-1.39,2.88-2.08,4.67-2.08s3.37.69,4.73,2.08c1.36,1.39,2.04,3.09,2.04,5.12s-.72,3.73-2.17,5.12c-1.44,1.39-3.05,2.08-4.83,2.08s-3.29-.68-4.54-2.04Zm26.34-10.28c1.26,1.39,1.9,3.09,1.9,5.12s-.67,3.73-1.99,5.12c-1.33,1.39-2.89,2.08-4.69,2.08s-3.37-.68-4.72-2.04-2.02-3.07-2.02-5.12.71-3.77,2.12-5.16c1.44-1.39,3.06-2.08,4.84-2.08s3.3.69,4.57,2.08Z"/>
        <path class="cls-4" d="m153.61,99.83c0-6.06,1.85-11.11,5.54-15.14,3.7-4.04,8.69-6.05,15-6.05s11.29,2.01,14.95,6.03c3.67,4.02,5.5,9.08,5.5,15.17s-1.83,11.16-5.48,15.21c-3.65,4.05-8.45,6.07-14.4,6.07s-10.75-1.63-14.4-4.89c-3.65,3.26-8.23,4.89-13.72,4.89h-2.17v-8.5h2.08c4.7,0,7.07-4.23,7.09-12.7v-.08Zm13.42.04c0,8.5,2.36,12.74,7.07,12.74s7.07-4.25,7.07-12.74c0-3.74-.6-6.8-1.81-9.18-1.2-2.38-2.95-3.57-5.25-3.57s-4.05,1.2-5.27,3.59-1.83,5.44-1.83,9.15Z"/>
      </g>
      <path class="cls-2" d="m384.79,152.98c0,25.84-24.17,46.79-53.98,46.79s-53.98-20.95-53.98-46.79"/>
      <path class="cls-1" d="m394.39,246.94h-126.7c-21.58,0-39.1-14.97-37.63-32.45l11.54-137.75c1.43-17.09,17.75-30.17,37.88-30.2l99.38-.16c19.99-.03,36.46,12.99,38.24,30l14.43,137.8c1.84,17.53-15.56,32.77-37.14,32.77Z"/>
      <circle class="cls-4" cx="385.32" cy="133.89" r="6.55"/>
      <circle class="cls-4" cx="385.79" cy="114.25" r="6.55"/>
      <circle class="cls-4" cx="385.56" cy="95.32" r="6.55"/>
      <path class="cls-3" d="m279.05,48.48c0-23.19,21.99-41.98,49.11-41.98s49.11,18.8,49.11,41.98"/>
      <g>
        <path class="cls-4" d="m72.84,217.03h-11.3c-1.57,6.23-4.8,11.31-9.7,15.23-4.9,3.92-10.78,5.88-17.64,5.88h-.17c-8.26,0-15.04-2.78-20.33-8.33-5.29-5.55-7.94-12.36-7.94-20.43v-8.11c0-4.56,2.29-6.84,6.88-6.84,2.69,0,5.41.41,8.16,1.23-1.08,3.74-1.61,8.28-1.61,13.64v.08c.03,13.51,5,20.26,14.93,20.26s14.9-6.75,14.93-20.26v-21.75c0-4.56,2.29-6.84,6.88-6.84,2.69,0,5.39.41,8.11,1.23-1.05,3.74-1.57,8.3-1.57,13.68v12.83h10.37v8.5Zm-43.17-19.41c-1.29-1.36-1.94-3.07-1.94-5.12s.69-3.77,2.06-5.16c1.37-1.39,2.96-2.08,4.77-2.08s3.36.69,4.65,2.08,1.94,3.09,1.94,5.12-.69,3.73-2.06,5.12c-1.38,1.39-2.96,2.08-4.77,2.08s-3.36-.68-4.65-2.04Z"/>
        <path class="cls-4" d="m110.05,208.54v8.5h-5.61c-5.5,0-10.07-1.64-13.72-4.93-3.65,3.29-8.23,4.93-13.72,4.93h-5.73v-8.5h5.69c4.7,0,7.05-4.23,7.05-12.7v-14.44c0-4.56,2.31-6.84,6.92-6.84,2.66,0,5.37.41,8.11,1.23-1.08,3.74-1.61,8.3-1.61,13.68v6.37c.03,8.47,2.39,12.7,7.09,12.7h5.52Zm-32.48,27.57c-1.26-1.36-1.88-3.07-1.88-5.12s.67-3.77,2-5.16c1.33-1.39,2.89-2.08,4.67-2.08s3.35.69,4.71,2.08c1.36,1.39,2.04,3.09,2.04,5.12s-.72,3.73-2.17,5.12c-1.45,1.39-3.05,2.08-4.83,2.08s-3.29-.68-4.55-2.04Zm26.34-10.28c1.26,1.39,1.9,3.09,1.9,5.12s-.67,3.73-1.99,5.12c-1.33,1.39-2.89,2.08-4.69,2.08s-3.37-.68-4.72-2.04c-1.35-1.36-2.02-3.07-2.02-5.12s.71-3.77,2.12-5.16c1.45-1.39,3.06-2.08,4.84-2.08s3.3.69,4.57,2.08Z"/>
        <path class="cls-4" d="m186.09,174.55c2.66,0,5.38.41,8.16,1.23-1.08,3.74-1.61,8.3-1.61,13.68v6.37c-.03,6.06-1.88,11.11-5.55,15.14-3.67,4.04-8.63,6.05-14.9,6.05h-3.32c-5.5,0-10.07-1.63-13.73-4.88-3.62,3.26-8.18,4.88-13.67,4.88h-3.4c-5.49,0-10.06-1.63-13.71-4.88-3.65,3.26-8.22,4.88-13.72,4.88h-2.17v-8.5h2.12c4.67,0,7.02-4.23,7.05-12.7v-8.2c0-4.56,2.29-6.84,6.88-6.84,2.69,0,5.41.41,8.16,1.23-1.05,3.68-1.59,8.16-1.61,13.42v.38c.03,8.47,2.38,12.7,7.05,12.7h3.27c4.7,0,7.05-4.23,7.05-12.7v-8.2c0-4.56,2.3-6.84,6.9-6.84,2.7,0,5.41.41,8.13,1.23-1.08,3.68-1.61,8.16-1.61,13.42v.38c0,8.47,2.36,12.7,7.07,12.7h3.15c4.74,0,7.11-4.23,7.11-12.7v-14.44c0-4.56,2.29-6.84,6.88-6.84Zm-34.54-7.01c-1.45,1.39-3.05,2.08-4.82,2.08s-3.28-.68-4.54-2.04c-1.26-1.36-1.9-3.07-1.9-5.12s.67-3.77,2.02-5.16c1.35-1.39,2.9-2.08,4.67-2.08s3.33.69,4.69,2.08c1.36,1.39,2.04,3.09,2.04,5.12s-.72,3.73-2.17,5.12Zm8.63-24.94c1.27,1.39,1.9,3.09,1.9,5.12s-.67,3.73-2.01,5.12c-1.34,1.39-2.94,2.08-4.81,2.08s-3.49-.68-4.87-2.04c-1.38-1.36-2.07-3.07-2.07-5.12s.72-3.77,2.15-5.16c1.46-1.39,3.13-2.08,5-2.08s3.44.69,4.71,2.08Zm-1.19,24.98c-1.36-1.36-2.04-3.07-2.04-5.12s.71-3.77,2.15-5.16c1.43-1.39,3.03-2.08,4.79-2.08s3.29.69,4.57,2.08c1.28,1.39,1.92,3.09,1.92,5.12s-.67,3.73-2.02,5.12c-1.35,1.39-2.9,2.08-4.67,2.08s-3.33-.68-4.69-2.04Z"/>
      </g>
    </g>
  </g>
</svg>