<svg xmlns="http://www.w3.org/2000/svg" viewBox="0 0 1166.23 470.84"><defs><style>.cls-1{fill:#1d1d1b;}</style></defs><g id="Layer_2" data-name="Layer 2"><g id="Layer_1-2" data-name="Layer 1"><path class="cls-1" d="M433.28,75.52l-14.6.51c-8.36.29-16.78.53-25,.71l-6.09.13-2.34,5.63c-20.71,49.85-51.32,122.22-79.56,183.93-16.55,36.54-32,68.86-44.35,94.83q-2.4,5-4.6,9.65c-1-13.37-2.34-29.83-3.89-49-1.09-13.62-2.29-28.46-3.53-44.24-3.94-49-8.89-114.28-15.15-199.71l-.56-7.6-7.56-1c-8.2-1.07-16.43-2.28-24.44-3.59L194,64.5l-2.67,7.25C169.81,130.18,134.16,209.22,102.71,279,88,311.68,74.91,340.59,65.17,363.28,62.24,306.68,55.84,208.05,50,118c-2.22-34.13-4.29-66-5.93-92l-.36-5.69L38.48,18c-8-3.49-16.06-7.2-24-11L0,0,4.62,68.57c8.57,127.33,17.43,259,26.15,375.8l.59,7.91,7.89.71c8,.73,16.27,1.33,24.67,1.78l6.52.35,2.58-6c11.1-25.89,25.68-57.29,41.11-90.54,13.32-28.68,27.09-58.35,40.25-87.92,16.74-37.16,33.37-76.89,45.3-107.7,1.86,30.1,4.63,70.3,7.72,109.83,5,65,10.86,128.69,14.7,166.61l1,9.46,9.44-1.12c8.29-1,16.95-2.07,25.72-3.25l4.73-.64,2.26-4.2C312.78,351.12,364.39,239.7,427.63,89Z"/><path class="cls-1" d="M446.42,206.65l-13.11,1.1q-9.94.84-19.87,1.56l-6.72.49-1.66,6.53c-18,70.74-35.35,134.54-51.56,189.62l-4,13.63,14.11-1.7q10-1.22,20.1-2.51l6.06-.78,1.72-5.86c16-54.52,33.43-118.22,51.67-189.34Z"/><path class="cls-1" d="M425.8,127.21l-1.73,6.9q-5.77,23.08-11.5,45.53L409.41,192l12.76-.73q10.18-.58,20.4-1.29l6.79-.46,1.65-6.6q5.53-22.17,11.12-44.92l2.94-12-12.34.42q-9.92.33-19.82.58Z"/><path class="cls-1" d="M632,333.42l3.86-18.5c6.4-30.72,13-62.48,19.54-93.16,3.16-14.76,7-30.91,10.39-44.89l3.33-13.8-14,2.38q-9.93,1.7-19.86,3.45l-5.52,1L628,175.2c-.94,2.89-2.46,8.28-4.1,14.59-12.8-11.1-34.34-17.48-64.22-12.14-67.54,11.55-109.35,83.2-109.35,143,0,26.87,7.55,46.51,22.43,58.39,14.48,11.56,35.34,14.67,60.35,9,21.46-5,39.29-13.4,53.79-25.43-12,41.26-28.44,62.2-68.19,70.15-19.12,3.85-33.26,2.94-40.91-2.61-4.4-3.19-6.93-8.15-7.75-15.17l-1.19-10.23-10.07,2.17q-9.9,2.14-19.78,4.25l-7.58,1.61.17,7.74c.37,16.79,6,29.71,16.8,38.41,9.85,8,23.67,11.95,41.24,11.95a160.42,160.42,0,0,0,30.1-3.18C601,452.56,617.54,402.49,632,333.42ZM500.86,347.87c-9.31-7.38-11.26-21.58-11.26-32.19,0-49,31.45-93.35,71.63-100.87,18.59-3.54,32-1.29,39.83,6.68,9,9.12,11.28,26.72,6.52,49.65-6.3,31.78-29.33,69.59-75.08,80.39C523,353.76,509.77,354.93,500.86,347.87Z"/><path class="cls-1" d="M892.58,121.29l-12.93,0c-6.6,0-13.32.09-20,.21l-5.93.12-2.42,5.4c-.92,2-2.3,5.67-3.8,10a57.29,57.29,0,0,0-11.7-7.52c-13.84-6.77-31.9-9.65-52.12-8.34C714.61,125,673.31,186.05,673.31,242.92c0,25.6,7.77,45.46,22.48,57.41s35.41,15.47,60.06,10.33q32.16-6.6,54.5-23.79c-11.12,38.48-26.56,64.15-68.72,72.66-18,3.75-31.7,2.72-39.51-3-5.18-3.78-8.16-9.78-9.08-18.34l-1.13-10.45-10.25,2.34q-9.92,2.25-19.83,4.55l-7.41,1.71.16,7.6c.4,19.25,6.73,33.92,18.81,43.61,10.1,8.11,23.81,12.17,40.92,12.17a146.33,146.33,0,0,0,28.51-3.11c37.31-7.39,64-23.8,81.73-50.19,15.67-23.38,23-52,30.39-84.19h0c7.79-34.32,15.63-66.2,23.32-94.74,3.39-12.51,7.51-25.36,10.31-33.94Zm-180,117h0c0-44.56,30.35-80.52,70.58-83.65q4.44-.33,8.52-.33c16.38,0,28.31,4,34.77,11.6,8.75,10.35,7.12,26.65,4.18,38.61-6.14,26.32-29.44,60.31-74.88,69.47-9.55,1.94-22.86,2.69-32-4.77S712.54,248.28,712.54,238.33Z"/><path class="cls-1" d="M881,310.61l12.29-1.67q9.85-1.35,19.7-2.56l7.07-.88,1-7c17.54-119.22,36.29-210.73,57.32-279.77l3-10L943.17,1.41l-2.43,8.08c-21,70.09-40,164.57-57.93,288.84Z"/><path class="cls-1" d="M1156.54,167.06l9.69-22.18-10-3.11a953.92,953.92,0,0,0-153.85-34.17l-7.32-1-2.69,6.89q-2,5.12-4,10.41L984.23,135,996,136.45c31.08,3.94,61.71,9.36,91.43,16.15-45.54,15.46-87.42,37.75-127.21,67.65l-2.64,2-.81,3.2q-1.62,6.41-3.26,13l-3,12L962.9,250a994.66,994.66,0,0,1,161.28,7.73l5.09.66,3.3-4c2.66-3.18,5.38-6.36,8.1-9.42l11.24-12.69-16.72-2.74a968,968,0,0,0-111-11.71c39-23.28,81-39.66,127.68-49.84Z"/></g></g></svg>